<svg width="342" height="25" viewBox="0 0 342 25" fill="none" xmlns="http://www.w3.org/2000/svg">
<g clip-path="url(#clip0_1_842)">
<g clip-path="url(#clip1_1_842)">
<path d="M172.081 10.1601C168.561 10.2296 165.72 13.0691 165.65 16.5884H157.442C157.37 13.0252 154.459 10.1587 150.879 10.1587C147.298 10.1587 144.387 13.0252 144.316 16.5884H136.108C136.036 13.0252 133.125 10.1587 129.545 10.1587C125.965 10.1587 123.054 13.0252 122.982 16.5884L114.774 16.5884C114.703 13.0252 111.792 10.1587 108.211 10.1587C104.631 10.1587 101.72 13.0252 101.648 16.5884L93.4408 16.5884C93.3691 13.0252 90.4585 10.1587 86.8778 10.1587C83.2978 10.1587 80.3866 13.0252 80.3154 16.5884L72.1069 16.5884C72.0357 13.0252 69.1245 10.1587 65.5444 10.1587C61.9638 10.1587 59.0532 13.0252 58.9815 16.5884L50.7735 16.5884C50.7018 13.0252 47.7911 10.1587 44.211 10.1587C40.6304 10.1587 37.7198 13.0252 37.648 16.5884L29.4401 16.5884C29.3683 13.0252 26.4572 10.1587 22.8771 10.1587C19.2965 10.1587 16.3858 13.0252 16.3141 16.5884L8.1066 16.5884C8.03488 13.0252 5.12375 10.1587 1.54367 10.1587C1.49377 10.1587 1.44385 10.1593 1.39395 10.1604V8.79203H343L343 10.1596C342.966 10.159 342.932 10.1588 342.899 10.1588C339.318 10.1588 336.407 13.0252 336.336 16.5884L328.128 16.5884C328.056 13.0252 325.145 10.1587 321.565 10.1587C317.985 10.1587 315.074 13.0252 315.002 16.5884L306.794 16.5884C306.723 13.0252 303.812 10.1587 300.231 10.1587C296.651 10.1587 293.74 13.0252 293.669 16.5884L285.46 16.5884C285.389 13.0252 282.478 10.1587 278.897 10.1587C275.317 10.1587 272.407 13.0252 272.335 16.5884L264.127 16.5884C264.055 13.0252 261.145 10.1587 257.564 10.1587C253.984 10.1587 251.073 13.0252 251.001 16.5884L242.793 16.5884C242.722 13.0252 239.811 10.1587 236.231 10.1587C232.65 10.1587 229.739 13.0252 229.668 16.5884L221.46 16.5884C221.388 13.0252 218.477 10.1587 214.897 10.1587C211.316 10.1587 208.406 13.0252 208.334 16.5884L200.126 16.5884C200.054 13.0252 197.144 10.1587 193.563 10.1587C189.983 10.1587 187.072 13.0252 187 16.5884L178.793 16.5884C178.721 13.0531 175.856 10.2037 172.314 10.1592C172.28 10.1587 172.246 10.1588 172.213 10.1588C172.206 10.1588 172.2 10.1588 172.194 10.1588C172.156 10.159 172.118 10.1592 172.081 10.1601Z" fill="#CCCCCC"/>
</g>
</g>
<defs>
<clipPath id="clip0_1_842">
<rect width="342" height="24" fill="white" transform="matrix(-1 0 0 -1 342 24.6904)"/>
</clipPath>
<clipPath id="clip1_1_842">
<rect width="342" height="7.79635" fill="white" transform="matrix(-1 0 0 -1 343 16.5884)"/>
</clipPath>
</defs>
</svg>
