<svg width="15" height="221" viewBox="0 0 15 221" fill="none" xmlns="http://www.w3.org/2000/svg">
<g clip-path="url(#clip0_1_251)">
<g clip-path="url(#clip1_1_251)">
<path fill-rule="evenodd" clip-rule="evenodd" d="M5.95814 211.986C10.5423 212.078 14.2301 215.823 14.2301 220.429C14.2301 220.473 14.2298 220.516 14.2291 220.56L15.9885 220.559V0.662552L14.228 0.663223C14.2294 0.726746 14.2302 0.790924 14.2302 0.855118C14.2302 5.46175 10.5423 9.20644 5.95814 9.29872V19.858C10.5423 19.9503 14.2302 23.6957 14.2302 28.3016C14.2302 32.9083 10.5423 36.653 5.95814 36.7452V47.3052C10.5423 47.3975 14.2302 51.1422 14.2302 55.7488C14.2302 60.3548 10.5423 64.1001 5.95814 64.1924V74.7517C10.5423 74.844 14.2302 78.5887 14.2302 83.1953C14.2302 87.8013 10.5423 91.5466 5.95814 91.6389V102.199C10.5423 102.291 14.2302 106.036 14.2302 110.642C14.2302 115.248 10.5423 118.993 5.95814 119.085V129.645C10.5423 129.738 14.2302 133.482 14.2302 138.088C14.2302 142.695 10.5423 146.44 5.95814 146.532V157.092C10.5423 157.184 14.2302 160.929 14.2302 165.536C14.2302 170.142 10.5423 173.887 5.95814 173.979V184.539C10.5423 184.631 14.2302 188.376 14.2302 192.982C14.2302 197.588 10.5423 201.333 5.95814 201.426V211.986Z" fill="white"/>
</g>
</g>
<defs>
<clipPath id="clip0_1_251">
<rect width="15" height="220" fill="white" transform="matrix(-1 0 0 -1 15 220.56)"/>
</clipPath>
<clipPath id="clip1_1_251">
<rect width="10.6991" height="220" fill="white" transform="matrix(-1 0 0 -1 16 220.56)"/>
</clipPath>
</defs>
</svg>
